<?xml version="1.0" encoding="utf-8"?>
<!-- Generator: Adobe Illustrator 26.1.0, SVG Export Plug-In . SVG Version: 6.00 Build 0)  -->
<svg version="1.1" id="Ebene_1" xmlns="http://www.w3.org/2000/svg" xmlns:xlink="http://www.w3.org/1999/xlink" x="0px" y="0px"
	 viewBox="0 0 283.46 283.46" style="enable-background:new 0 0 283.46 283.46;" xml:space="preserve">
<style type="text/css">
	.Grün_x0020_bogenförmig{fill:url(#SVGID_1_);stroke:#FFFFFF;stroke-width:0.25;stroke-miterlimit:1;}
	.st0{fill:#ffffff;}
</style>
<linearGradient id="SVGID_1_" gradientUnits="userSpaceOnUse" x1="-141.7324" y1="425.1973" x2="-141.0253" y2="424.4902">
	<stop  offset="0" style="stop-color:#1DA238"/>
	<stop  offset="0.9831" style="stop-color:#24391D"/>
</linearGradient>
<g>
	<g>
		<g>
			<path class="st0" d="M141.73,33.51c-59.77,0-108.22,48.45-108.22,108.23c0,59.78,48.46,108.23,108.22,108.23
				c59.77,0,108.23-48.45,108.23-108.23C249.96,81.96,201.5,33.51,141.73,33.51z M141.73,237.73c-53.02,0-95.99-42.98-95.99-96
				s42.97-96,95.99-96s96,42.98,96,96S194.75,237.73,141.73,237.73z"/>
			<path class="st0" d="M108.92,191.22l-0.59-18.92c-3.71,3.29-7.63,5.01-12.13,5.01c-13.5,0-18.24-12.83-18.24-35.82
				c0-20.5,4.73-35.36,17.43-35.36c4.9,0,8.23,1.25,12.53,3.76l0.51-19.09c-4.41-1.88-9.1-2.81-13.91-2.81
				c-22.6,0-34.25,23.47-34.25,56.94c0,26.29,8.05,50.84,31.65,50.84C98.22,195.75,104.01,194.05,108.92,191.22"/>
			<polyline class="st0" points="172.17,216.72 172.17,198.62 133.8,198.62 133.8,141.19 167.49,141.19 167.49,124.12 133.8,124.12
				133.8,83.29 172.17,83.29 172.17,66.15 114.78,66.15 114.78,216.72 172.17,216.72 			"/>
			<path class="st0" d="M220.58,161.74c0-32.62-32.6-25.67-32.6-44.53c0-7.73,3.8-12.52,13.04-12.52c4.33,0,8.08,1.66,12.75,3.82
				V90.57c-4.79-1.39-8.2-2.59-13.22-2.59c-17.79,0-29.38,12.83-29.38,31.39c0,34.64,31.34,25.05,31.34,45.15
				c0,9.58-4.98,13.76-13.19,13.76c-5.36,0-10.56-1.7-15.23-4.18v19.03c4.68,1.86,9.8,2.62,16.08,2.62
				C208.43,195.75,220.58,181.39,220.58,161.74"/>
		</g>
	</g>
</g>
</svg>
